<svg xmlns="http://www.w3.org/2000/svg" width="1835" height="821" fill="none"><rect width="1790" height="792" x="45" fill="#1C3F39" rx="30"/><path fill="#C9F31D" d="M1193.62 91.214c-9.27-15.369-32.16-18.556-16.79-27.828 15.37-9.272 41.31-7.927 50.58 7.442 9.27 15.369-1.63 38.942-17 48.214-15.37 9.272-7.52-12.459-16.79-27.828Z"/><path fill="#fff" fill-opacity=".16" d="M374.5 725.5c0 16.569-13.431 30-30 30-16.569 0-30-13.431-30-30 0-16.568 13.431-30 30-30 16.569 0 30 13.432 30 30Z"/><path fill="#C9F31D" fill-opacity=".8" d="M93 72c0-5.523 4.477-10 10-10h55.984c6.57 0 11.355 6.228 9.662 12.577l-10.788 40.457a10.004 10.004 0 0 1-6.559 6.93l-45.195 14.757C99.64 138.832 93 134.015 93 127.215V72Z"/><path stroke="#C9F31D" stroke-dasharray="16 16" stroke-opacity=".3" d="m57.959 788.079.803-3.139c20.451-79.904 89.372-138.013 171.583-144.666l21.55-1.744c54.59-4.417 102.811-37.278 126.889-86.47l8.672-25.732c13.355-39.627 47.141-68.9 88.266-76.476l16.572-3.053c34.027-6.269 61.313-31.732 69.917-65.244l3.615-14.082c8.863-34.522 41.668-57.348 77.118-53.659l4.556.474c35.986 3.745 68.475-21.68 73.491-57.511l1.99-14.213c5.077-36.26 42.986-57.998 76.844-44.064 29.713 12.227 63.603-2.974 74.23-33.297l2.869-8.186C885.954 131.25 910.279 114 937.583 114H954"/><path fill="#C9F31D" fill-opacity=".3" fill-rule="evenodd" d="m948.421 100.185 40.383 2.001c.37.35.427.751.17 1.204a79.131 79.131 0 0 1-3.579 4.467c-1.007.031-1.277-.396-.811-1.282a47.51 47.51 0 0 1 1.766-2.212c.064-.058.067-.119.009-.183a4912.436 4912.436 0 0 1-22.999 6.447l12.23 7.55c2.345-3 4.701-5.995 7.07-8.984.977-.146 1.28.252.907 1.194-2.43 3.152-4.871 6.296-7.322 9.432a.88.88 0 0 1-.918-.046 387.675 387.675 0 0 0-6.07-3.749 728.509 728.509 0 0 0-9.311 5.93c-.654.224-1.057.005-1.209-.658-.464-4.779-.948-9.554-1.452-14.326l-9.022-5.459c-.363-.504-.31-.946.158-1.326Zm3.318 1.728c9.138.345 18.286.783 27.445 1.314-6.959.823-13.916 1.659-20.872 2.506a437.372 437.372 0 0 1-6.573-3.82Zm26.447 2.874a.762.762 0 0 1 .365.064l-17.353 4.842a.767.767 0 0 0-.447.667l-1.007 5.468a225.03 225.03 0 0 1-.903-8.689c6.466-.739 12.914-1.523 19.345-2.352Zm-16.163 6.832a136.687 136.687 0 0 1 5.714 3.502 417.38 417.38 0 0 1-7.129 4.613c.425-2.695.897-5.4 1.415-8.115Z" clip-rule="evenodd" opacity=".939"/></svg>